<svg width="1000" height="1000" xmlns="http://www.w3.org/2000/svg">
 <metadata>Svg Vector Icons : http://www.onlinewebfonts.com/icon</metadata>

 <g>
  <title>background</title>
  <rect fill="none" id="canvas_background" height="602" width="802" y="-1" x="-1"/>
 </g>
 <g>
  <title>Layer 1</title>
  <ellipse ry="245.2381" rx="326.19048" id="svg_3" cy="502.38095" cx="495.2381" stroke-width="1.5" stroke="#000" fill="#fff"/>
  <g id="svg_1">
   <path id="svg_2" d="m500,10c-270.6,0 -490,219.4 -490,490c0,270.6 219.4,490 490,490c270.6,0 490,-219.4 490,-490c0,-270.6 -219.4,-490 -490,-490zm214.4,370.9l-6,0c0,0 -17.9,0 -17.9,17.9c0,17.9 0,202.5 0,202.5s0,17.9 17.9,17.9l6,0l0,47.6l-142.9,0l0,-47.6l23.8,0l0,-221.6l-2.4,0l-73,269.2l-64.3,0l-72.3,-269.2l-2.4,0l0,221.5l23.8,0l0,47.6l-119.1,0l0,-47.6l6,0c0,0 17.9,0 17.9,-17.9c0,-17.9 0,-202.5 0,-202.5s0,-17.9 -17.9,-17.9l-6,0l0,-47.6l158,0l55.4,206.3l1.8,0l55.9,-206.3l157.5,0l0,47.7l0.2,0z"/>
  </g>
 </g>
</svg>