<?xml version="1.0" encoding="iso-8859-1"?>
<!-- Generator: Adobe Illustrator 19.0.0, SVG Export Plug-In . SVG Version: 6.00 Build 0)  -->
<svg version="1.1" id="Capa_1" xmlns="http://www.w3.org/2000/svg" xmlns:xlink="http://www.w3.org/1999/xlink" x="0px" y="0px"
	 viewBox="0 0 490.667 490.667" style="enable-background:new 0 0 490.667 490.667;" xml:space="preserve">
<path style="fill:#D14E05;" d="M245.333,0C109.839,0,0,109.839,0,245.333s109.839,245.333,245.333,245.333
	s245.333-109.839,245.333-245.333C490.514,109.903,380.764,0.153,245.333,0z"/>
<path style="fill:#FAFAFA;" d="M290.133,104.533c-19.139-18.289-49.277-18.289-68.416,0c-18.893,18.881-18.902,49.503-0.021,68.395
	c0.007,0.007,0.014,0.014,0.021,0.021l19.2,19.2H117.333C87.878,192.149,64,216.027,64,245.483
	c0,29.455,23.878,53.333,53.333,53.333h123.584l-19.2,19.2c-17.522,20.175-15.371,50.734,4.804,68.257
	c18.259,15.858,45.423,15.799,63.612-0.139l118.251-118.251c12.492-12.496,12.492-32.752,0-45.248L290.133,104.533z"/>
<g>
</g>
<g>
</g>
<g>
</g>
<g>
</g>
<g>
</g>
<g>
</g>
<g>
</g>
<g>
</g>
<g>
</g>
<g>
</g>
<g>
</g>
<g>
</g>
<g>
</g>
<g>
</g>
<g>
</g>
</svg>
