<?xml version="1.0" encoding="utf-8"?>
<!-- Generator: Adobe Illustrator 23.0.3, SVG Export Plug-In . SVG Version: 6.00 Build 0)  -->
<svg version="1.1" id="f02737fd-72c1-4c7a-8ed1-3bbe2454c5db"
	 xmlns="http://www.w3.org/2000/svg" xmlns:xlink="http://www.w3.org/1999/xlink" x="0px" y="0px" viewBox="0 0 846.6 682.6"
	 style="enable-background:new 0 0 846.6 682.6;" xml:space="preserve">
<style type="text/css">
	.st0{fill:#40CC40;}
	.st1{fill:#CCCCCC;}
	.st2{fill:#358E35;}
	.st3{fill:#1F991F;}
	.st4{fill:#3F3D56;}
	.st5{fill:#FFFFFF;}
	.st6{fill:#6C63FF;}
	.st7{fill:#E6E6E6;}
	.st8{opacity:0.1;}
	.st9{fill:#FFB8B8;}
	.st10{fill:#2F2E41;}
	.st11{fill:#0D1D51;}
	.st12{fill:#E87C1A;}
	.st13{fill:#5D5D6D;}
</style>
<circle class="st0" cx="241.2" cy="362" r="97.2"/>
<path class="st1" d="M214.9,503.9l23.9,14.8V418.6L212,402c-2.2-1.4-3.8-3.5-4.5-6l0,0c2.6-0.5,5.2,0,7.4,1.4l23.9,14.8v-38.8
	c0-7.5,0.9-15,2.7-22.3c1.8,7.3,2.7,14.8,2.7,22.3v63.4l35.3-21.9c2.8-1.7,6.1-2.6,9.4-2.6c-1.4,3-3.7,5.5-6.5,7.3l-38.2,23.6V682
	h-5.5V525.2L212,508.6c-2.2-1.4-3.8-3.5-4.5-6l0,0C210,502.1,212.7,502.6,214.9,503.9z"/>
<circle class="st2" cx="97.2" cy="370.2" r="97.2"/>
<path class="st1" d="M123.5,512.2L99.6,527V426.9l26.8-16.6c2.2-1.4,3.8-3.5,4.5-6l0,0c-2.6-0.5-5.2,0-7.4,1.4l-23.9,14.8v-38.8
	c0-7.5-0.9-15-2.7-22.3c-1.8,7.3-2.7,14.8-2.7,22.3v63.4l-35.3-21.9c-2.8-1.7-6.1-2.6-9.4-2.6c1.4,3,3.7,5.5,6.5,7.3l38.2,23.6
	v229.1h5.5V533.5l26.8-16.6c2.2-1.4,3.8-3.5,4.5-6l0,0C128.3,510.3,125.7,510.8,123.5,512.2z"/>
<circle class="st3" cx="167.8" cy="167.4" r="167.4"/>
<path class="st1" d="M213,411.7l-41.2,25.5V264.8l46.1-28.6c3.8-2.4,6.6-6.1,7.8-10.4l0,0h0c-4.4-0.8-9,0-12.8,2.4l-41.2,25.5v-66.9
	c0-12.9-1.6-25.8-4.7-38.4c-3.1,12.5-4.7,25.4-4.7,38.4V296l-60.7-37.6c-4.8-3-10.5-4.6-16.2-4.5c2.5,5.1,6.3,9.5,11.2,12.5
	l65.7,40.7v373.8h9.4V448.4l46.1-28.6c3.8-2.4,6.6-6.1,7.8-10.4l0,0h0C221.4,408.5,216.8,409.4,213,411.7z"/>
<rect x="33.6" y="680.6" class="st4" width="813" height="2"/>
<path class="st4" d="M642.9,161h-2.3V47c0-21.5-17.5-39-39-39H347.9c-21.5,0-39,17.5-39,39V97H308c-1.3,0-2.3,1-2.3,2.3v22.3
	c0,1.3,1,2.3,2.3,2.3h0.9v22.4h-1.1c-1.3,0-2.3,1-2.3,2.3c0,0,0,0,0,0v42.3c0,1.3,1,2.3,2.3,2.3h1.1v16.4h-1c-1.3,0-2.3,1-2.3,2.3
	c0,0,0,0,0,0v42.7c0,1.3,1,2.3,2.3,2.3h1v386.6c0,21.5,17.5,39,39,39h253.8c21.5,0,39-17.5,39-39V242.7h2.3c1.3,0,2.3-1,2.3-2.3
	v-77.2C645.2,162,644.2,161,642.9,161z"/>
<path class="st5" d="M485.2,38.1h-38.6c-2.4,0-4.4-2-4.4-4.4V32c0-2.4,2-4.4,4.4-4.4h38.6c2.4,0,4.4,2,4.4,4.4v1.7
	C489.6,36.1,487.6,38.1,485.2,38.1z"/>
<circle class="st5" cx="501.4" cy="32.9" r="5.3"/>
<path class="st5" d="M593.8,25.6h-38v4.6c0,12-9.7,21.7-21.7,21.7l0,0H413.1c-12,0-21.7-9.7-21.7-21.7c0,0,0,0,0,0v-4.6h-35.6
	c-14.6,0-26.3,11.8-26.3,26.4l0,0l0,0v586.4c0,14.6,11.8,26.3,26.3,26.3h238.1c14.5,0,26.3-11.8,26.3-26.3v0V52
	C620.2,37.4,608.4,25.6,593.8,25.6L593.8,25.6L593.8,25.6z"/>
<path class="st6" d="M525.8,593.6h-102c-15.2,0-27.5-12.3-27.5-27.5s12.3-27.5,27.5-27.5h102c15.2,0,27.5,12.3,27.5,27.5
	S541,593.6,525.8,593.6z"/>
<path class="st7" d="M565.8,367.7h-182c-5.2,0-9.5-4.3-9.5-9.5s4.3-9.5,9.5-9.5h182c5.2,0,9.5,4.3,9.5,9.5S571,367.7,565.8,367.7z"
	/>
<path class="st7" d="M565.8,395.7h-182c-5.2,0-9.5-4.3-9.5-9.5s4.3-9.5,9.5-9.5h182c5.2,0,9.5,4.3,9.5,9.5S571,395.7,565.8,395.7z"
	/>
<path class="st7" d="M565.8,423.7h-182c-5.2,0-9.5-4.3-9.5-9.5s4.3-9.5,9.5-9.5h182c5.2,0,9.5,4.3,9.5,9.5S571,423.7,565.8,423.7z"
	/>
<path class="st7" d="M565.8,451.7h-182c-5.2,0-9.5-4.3-9.5-9.5s4.3-9.5,9.5-9.5h182c5.2,0,9.5,4.3,9.5,9.5S571,451.7,565.8,451.7z"
	/>
<path class="st7" d="M441.8,479.7h-58c-5.2,0-9.5-4.3-9.5-9.5s4.3-9.5,9.5-9.5h58c5.2,0,9.5,4.3,9.5,9.5S447,479.7,441.8,479.7
	L441.8,479.7z"/>
<path class="st7" d="M594.2,289.8h-239c-4.4,0-8-3.6-8-8V104.5c0-4.4,3.6-8,8-8h239c4.4,0,8,3.6,8,8v177.4
	C602.2,286.3,598.6,289.8,594.2,289.8z"/>
<g class="st8">
	<path d="M636.6,239.2c0-1.4,0-2.8,0-4.1c-0.1,1.1-0.1,2.1,0,3.2C636.6,238.6,636.6,238.9,636.6,239.2z"/>
</g>
<circle class="st9" cx="676.4" cy="291.6" r="26.2"/>
<path class="st9" d="M744.7,504.4c3.9-3.5,4.1-9.5,0.6-13.4c-0.4-0.4-0.8-0.8-1.2-1.1l-3.6-31.8l-19.9,5.4l9.7,28.6
	c-2.9,4.4-1.7,10.3,2.7,13.2C736.6,507.8,741.4,507.4,744.7,504.4L744.7,504.4z"/>
<polygon class="st9" points="759.2,665.3 770.2,658.2 748,612.4 731.8,622.9 "/>
<path class="st10" d="M798.1,654.7L763.5,677l0,0l-8.6-13.4l0,0l21.7-14c7.1-4.6,16.6-2.6,21.2,4.5l0,0L798.1,654.7L798.1,654.7z"/>
<polygon class="st9" points="661.9,669.9 674.9,669.9 681.2,619.4 661.9,619.4 "/>
<path class="st10" d="M700.2,682.1H659l0,0v-15.9l0,0h25.9c8.5,0,15.3,6.9,15.3,15.3v0V682.1L700.2,682.1z"/>
<path class="st10" d="M714.4,343.7c-1.7,5.7,4.4,11.8,6.4,17.4c2,5.6,4.7,10.9,5.8,16.8c0.7,4,17.4,92.6,16.6,98
	c-5.1-1.5-10.7-1-15.5,1.4c-3.3-5.9-5.3-12.4-5.9-19.1c-0.2-4-0.2-8,0.1-12c0.5-11.3-4.4-22.6-4.5-33.8c0.1-3.9-0.3-7.8-0.9-11.7
	c-0.5-2.6-0.5-7.6-1.1-10.2c-0.9-4.2,3-6.1,2.8-10.4l-1.2-23.5C716.9,352.4,712.7,347.4,714.4,343.7z"/>
<path class="st11" d="M655.2,442.3c-4.2,6.6-13.1,8-19.3,12.7c-9.5,7.2,14.7,169.7,22.7,198.6c21.1-3.2,21.8-3.1,24.2-4.2
	s4.6-83.6,9.7-100.6c9.6,9,39.7,86.6,46.1,103.8c25.3-6.3,0,0,32.6-8.4c-0.3-6-48.2-200.1-50-215.4
	C699.3,433.1,677.1,437.9,655.2,442.3z"/>
<path class="st12" d="M652.3,320.3c-2.6,7.7,0.9,37.7,1.2,44.4c0.4,6.1,0.4,12.3,0,18.4c-0.9,10.6-4.1,21.3-1.9,31.7
	c1.4,6.9,3.8,13.3,4.4,20.3c0.4,4.9,0.3,9.8,1.8,14.4c5.7-2.4,56-10.8,59.6-15.6c-2.5-12.2-0.1-24.8-1.8-37.2
	c-1-7.1-3.4-14-4.5-21.1c-1.4-8.8-0.8-17.8-3.4-26.3c-1.4-4.3-3.2-8.5-5.4-12.5c-2.2-4.5-5-8.2-5.9-8.2
	C694.2,328.7,652.5,319.6,652.3,320.3z"/>
<path class="st13" d="M642.7,503.7c0,0,8.7-17.4,9.2-27.3c0.2-3.6,9.9-17.8,14.3-21c10.5-7.7,18.2-59,14.6-71.4
	c-6.1-21.5-16.4-41.6-26.8-61.4c-0.3-0.7-0.8-1.4-1.5-1.9c-2.1-1.3-4.4,1.3-5.9,3.3c-4.9,6.9-13,10.6-20.4,14.7s-15,9.5-17.3,17.7
	c-1.5,5.5-0.3,11.3,0.8,16.8c1.1,5.5,5.1,10,8.2,14.6c3.5,5.2,12.6,28,12.5,30.8c0.2,16.8,0.3,33.6-1.7,50.3
	c-1.1,9.4-2.1,28.4-2.1,28.4L642.7,503.7z"/>
<path class="st13" d="M721.9,485.7c-16.1-36.5-15.2-78.1-25.4-116.7c-3-11.4-7.1-23-6.4-34.8c0.1-2.1,0.6-4.5,2.3-5.7
	c1.6-1.1,3.7-0.8,5.4,0s3.2,2,4.9,2.9c2.7,1.4,5.8,1.8,8.4,3.3c3.8,2.3,5.8,6.7,7.5,10.8c3.7,8.8,7.3,17.8,7.6,27.4
	c0.6,18.5-7.6,36.3-3.3,54.3c0.9,3.5,2,7,3.3,10.5c4.3,12.4,7.8,25.1,10.5,37.9C737.3,477.8,722.6,487.3,721.9,485.7z"/>
<path class="st9" d="M670.9,477.1c0.8-5.2-2.7-10-7.9-10.9c-0.6-0.1-1.1-0.1-1.7-0.1l-22.6-22.6l-12.2,16.7l25.4,16.3
	c0.5,5.3,5.1,9.1,10.3,8.7C666.7,484.8,670.3,481.5,670.9,477.1L670.9,477.1z"/>
<path class="st13" d="M598.8,425.8c0.4,3.4,28.9,39.2,44.4,50.9c-0.9-4.6,11.2-19.6,15.2-22c-9.8-9.3-30.3-30.7-31-31.9
	c-2.2-4.3,0-9.4,1.9-13.8c6.1-14.1,9-30.1,5.1-44.9c-1.5-5.6-4.1-11.2-8.7-14.6c-2-1.5-4.8-2.5-7.1-1.4c-1,0.5-1.8,1.3-2.4,2.2
	C608.8,359,598.5,423.3,598.8,425.8z"/>
<path class="st10" d="M665.3,314.6c1.5-6.5-6.2-20.5-4.7-27c1-4.4,11.4-1.4,13.8-5.2c2.4-3.8,6.5-6.9,11-7
	c5.2-0.1,10.3,3.8,15.2,2.1c5-1.7,6.6-8.5,4.4-13.3s-6.9-7.8-11.6-10.2c-8-4.1-17.3-7-25.8-4.3c-5.2,1.6-9.5,5.1-13.7,8.6
	c-3.8,3.1-7.7,6.3-10.3,10.5c-5.2,8.1-4.9,19.1-0.4,27.7s12.6,14.9,21.5,18.5"/>
</svg>
