<?xml version="1.0" encoding="utf-8"?>
<!-- Generator: Adobe Illustrator 23.0.3, SVG Export Plug-In . SVG Version: 6.00 Build 0)  -->
<svg version="1.1" id="Layer_1" xmlns="http://www.w3.org/2000/svg" xmlns:xlink="http://www.w3.org/1999/xlink" x="0px" y="0px"
	 viewBox="0 0 515.6 114" style="enable-background:new 0 0 515.6 114;" xml:space="preserve">
<style type="text/css">
	.st0{fill:#FFFFFF;}
	.st1{fill:#D14E05;}
</style>
<title>curved axios</title>
<g>
	<g id="Layer_1-2">
		<path class="st0" d="M71.1,88.5H29.3l-8,23.6H0L40.1,1.9h20.6l40.2,110.2H79L71.1,88.5z M64.5,69.1L50.2,26.9L36,69.1H64.5z"/>
		<path class="st0" d="M188,112.1l-21.7-38.3l-21.3,38.3H121l33.3-56L122.7,1.9h23.6L167,37.6l20.3-35.7h22.5l-31.3,53.2l33.5,57
			H188z"/>
		<path class="st1" d="M245.9,63.7v48.4h20.8V50.2C263.9,58.9,247.8,55.7,245.9,63.7z"/>
		<path class="st0" d="M266.7,1.9v48.3c-2.8,8.7-19,5.5-20.8,13.5V1.9H266.7z"/>
		<path class="st1" d="M332.1,106.6c-7.6-5.1-13.7-12.1-17.6-20.4c-4.3-9.1-6.5-19.1-6.4-29.2c-0.2-10.1,2-20.1,6.4-29.2
			c3.9-8.3,10-15.3,17.6-20.4c15.4-9.9,35.1-9.9,50.4,0c7.6,5.1,13.7,12.1,17.6,20.4c4.4,9.1,6.6,19.1,6.4,29.2
			c0.2,10.1-2,20.1-6.4,29.2c-3.9,8.3-10,15.3-17.6,20.4C367.1,116.5,347.4,116.5,332.1,106.6z M371.7,87.8
			c4.4-3.2,7.9-7.5,10.1-12.5c2.5-5.8,3.8-12,3.7-18.3c0.1-6.3-1.1-12.5-3.7-18.3c-2.2-5-5.7-9.3-10.1-12.5c-8.7-6-20.1-6-28.8,0
			c-4.4,3.2-7.9,7.5-10.1,12.5c-2.5,5.8-3.8,12-3.7,18.3c-0.1,6.3,1.1,12.5,3.7,18.3c2.2,5,5.7,9.3,10.1,12.5
			C351.6,93.8,363.1,93.8,371.7,87.8L371.7,87.8z"/>
		<path class="st1" d="M456.8,110.5c-5.9-1.9-11.4-5.1-16-9.2l7.1-19.3c4,3.6,8.7,6.4,13.8,8.3c5.1,2.1,10.5,3.1,15.9,3.2
			c5.9,0,10.3-1.1,13.1-3.2c2.7-2,4.3-5.2,4.2-8.6c0.1-2.4-0.8-4.8-2.5-6.5c-1.8-1.8-4-3.2-6.4-4.1c-2.6-1-6.1-2.2-10.6-3.5
			c-5.7-1.6-11.4-3.6-16.8-6c-4.5-2.1-8.4-5.4-11.2-9.5c-3.1-4.4-4.7-10.3-4.7-17.6c-0.1-6.1,1.4-12.1,4.2-17.4
			c2.9-5.3,7.4-9.6,12.8-12.4c5.7-3,12.7-4.6,20.9-4.6c5.7,0,11.4,0.8,16.8,2.5c5.2,1.5,10.1,4,14.4,7.2l-6.4,19.4
			c-8.3-5.8-16.6-8.7-24.9-8.7c-5.8,0-10.1,1.2-12.9,3.5c-2.7,2.2-4.3,5.6-4.2,9.1c-0.2,3.5,1.7,6.8,4.8,8.4
			c3.2,1.8,8.1,3.6,14.7,5.4c5.7,1.6,11.4,3.6,16.8,6c4.5,2.1,8.4,5.4,11.3,9.4c3.1,4.3,4.7,10.1,4.7,17.5c0.1,6-1.4,12-4.3,17.2
			c-3,5.3-7.5,9.6-12.9,12.4c-5.7,3-12.7,4.6-20.9,4.6C470.4,114,463.5,112.8,456.8,110.5z"/>
	</g>
</g>
</svg>
