<svg id="f02737fd-72c1-4c7a-8ed1-3bbe2454c5db" xmlns="http://www.w3.org/2000/svg" viewBox="0 0 953.25 682.6"><defs><style>.cls-1{fill:#40cc40;}.cls-2{fill:#ccc;}.cls-3{fill:#358e35;}.cls-4{fill:#1f991f;}.cls-5{fill:#3f3d56;}.cls-6{fill:#fff;}.cls-7{fill:#6c63ff;}.cls-8{fill:#e6e6e6;}.cls-9{opacity:0.1;}.cls-10{fill:#ffb8b8;}.cls-11{fill:#2f2e41;}.cls-12{fill:#0d1d51;}.cls-13{fill:#e87c1a;}.cls-14{fill:#5d5d6d;}.cls-15{font-size:16.77px;fill:#0a540a;}.cls-15,.cls-19,.cls-22,.cls-25{font-family:Montserrat-ExtraBold, Montserrat;font-weight:800;}.cls-16{letter-spacing:-0.01em;}.cls-17{letter-spacing:-0.01em;}.cls-18{letter-spacing:0.01em;}.cls-19,.cls-22,.cls-25{font-size:18.65px;}.cls-19{fill:#0a6b0a;}.cls-20{letter-spacing:-0.01em;}.cls-21{letter-spacing:0.01em;}.cls-22{fill:#166316;}.cls-23{letter-spacing:-0.02em;}.cls-24{letter-spacing:-0.04em;}.cls-25{fill:#074907;}.cls-26{letter-spacing:-0.01em;}.cls-27{letter-spacing:-0.01em;}.cls-28{letter-spacing:-0.03em;}.cls-29{letter-spacing:0em;}</style></defs><title>appdevelop</title><circle class="cls-1" cx="347.85" cy="362" r="97.2"/><path class="cls-2" d="M214.9,503.9l23.9,14.8V418.6L212,402a10.43,10.43,0,0,1-4.5-6h0a10.1,10.1,0,0,1,7.4,1.4l23.9,14.8V373.4a93.21,93.21,0,0,1,2.7-22.3,93.21,93.21,0,0,1,2.7,22.3v63.4l35.3-21.9a18.23,18.23,0,0,1,9.4-2.6,17.62,17.62,0,0,1-6.5,7.3l-38.2,23.6V682h-5.5V525.2L212,508.6a10.43,10.43,0,0,1-4.5-6h0A10.65,10.65,0,0,1,214.9,503.9Z" transform="translate(106.65)"/><circle class="cls-3" cx="203.85" cy="370.2" r="97.2"/><path class="cls-2" d="M123.5,512.2,99.6,527V426.9l26.8-16.6a10.43,10.43,0,0,0,4.5-6h0a10.1,10.1,0,0,0-7.4,1.4L99.6,420.5V381.7a93.21,93.21,0,0,0-2.7-22.3,93.21,93.21,0,0,0-2.7,22.3v63.4L58.9,423.2a18.23,18.23,0,0,0-9.4-2.6,17.62,17.62,0,0,0,6.5,7.3l38.2,23.6V680.6h5.5V533.5l26.8-16.6a10.43,10.43,0,0,0,4.5-6h0A9.78,9.78,0,0,0,123.5,512.2Z" transform="translate(106.65)"/><circle class="cls-4" cx="274.45" cy="167.4" r="167.4"/><path class="cls-2" d="M213,411.7l-41.2,25.5V264.8l46.1-28.6a18.1,18.1,0,0,0,7.8-10.4h0a18,18,0,0,0-12.8,2.4l-41.2,25.5V186.8a160.82,160.82,0,0,0-4.7-38.4,159.58,159.58,0,0,0-4.7,38.4V296l-60.7-37.6a29.8,29.8,0,0,0-16.2-4.5,30,30,0,0,0,11.2,12.5l65.7,40.7V680.9h9.4V448.4l46.1-28.6a18.1,18.1,0,0,0,7.8-10.4h0A17.59,17.59,0,0,0,213,411.7Z" transform="translate(106.65)"/><rect class="cls-5" x="140.25" y="680.6" width="813" height="2"/><path class="cls-5" d="M642.9,161h-2.3V47a39.05,39.05,0,0,0-39-39H347.9a39.05,39.05,0,0,0-39,39V97H308a2.26,2.26,0,0,0-2.3,2.3v22.3a2.26,2.26,0,0,0,2.3,2.3h.9v22.4h-1.1a2.26,2.26,0,0,0-2.3,2.3h0v42.3a2.26,2.26,0,0,0,2.3,2.3h1.1v16.4h-1a2.26,2.26,0,0,0-2.3,2.3h0v42.7a2.26,2.26,0,0,0,2.3,2.3h1V643.5a39.05,39.05,0,0,0,39,39H601.7a39.05,39.05,0,0,0,39-39V242.7H643a2.26,2.26,0,0,0,2.3-2.3V163.2A2.4,2.4,0,0,0,642.9,161Z" transform="translate(106.65)"/><path class="cls-6" d="M485.2,38.1H446.6a4.44,4.44,0,0,1-4.4-4.4V32a4.44,4.44,0,0,1,4.4-4.4h38.6a4.44,4.44,0,0,1,4.4,4.4v1.7A4.44,4.44,0,0,1,485.2,38.1Z" transform="translate(106.65)"/><circle class="cls-6" cx="608.05" cy="32.9" r="5.3"/><path class="cls-6" d="M593.8,25.6h-38v4.6a21.68,21.68,0,0,1-21.7,21.7h-121a21.68,21.68,0,0,1-21.7-21.7h0V25.6H355.8A26.29,26.29,0,0,0,329.5,52h0V638.4a26.27,26.27,0,0,0,26.3,26.3H593.9a26.33,26.33,0,0,0,26.3-26.3h0V52a26.37,26.37,0,0,0-26.4-26.4Z" transform="translate(106.65)"/><path class="cls-7" d="M525.8,593.6h-102a27.5,27.5,0,0,1,0-55h102a27.5,27.5,0,0,1,0,55Z" transform="translate(106.65)"/><path class="cls-8" d="M565.8,367.7h-182a9.5,9.5,0,0,1,0-19h182a9.5,9.5,0,0,1,0,19Z" transform="translate(106.65)"/><path class="cls-8" d="M565.8,395.7h-182a9.5,9.5,0,0,1,0-19h182a9.5,9.5,0,0,1,0,19Z" transform="translate(106.65)"/><path class="cls-8" d="M565.8,423.7h-182a9.5,9.5,0,0,1,0-19h182a9.5,9.5,0,0,1,0,19Z" transform="translate(106.65)"/><path class="cls-8" d="M565.8,451.7h-182a9.5,9.5,0,0,1,0-19h182a9.5,9.5,0,0,1,0,19Z" transform="translate(106.65)"/><path class="cls-8" d="M441.8,479.7h-58a9.5,9.5,0,0,1,0-19h58a9.5,9.5,0,0,1,0,19Z" transform="translate(106.65)"/><path class="cls-8" d="M594.2,289.8h-239a8,8,0,0,1-8-8V104.5a8,8,0,0,1,8-8h239a8,8,0,0,1,8,8V281.9A7.94,7.94,0,0,1,594.2,289.8Z" transform="translate(106.65)"/><g class="cls-9"><path d="M636.6,239.2v-4.1a17.1,17.1,0,0,0,0,3.2Z" transform="translate(106.65)"/></g><circle class="cls-10" cx="783.05" cy="291.6" r="26.2"/><path class="cls-10" d="M744.7,504.4a9.48,9.48,0,0,0,.6-13.4,12,12,0,0,0-1.2-1.1l-3.6-31.8-19.9,5.4,9.7,28.6a9.52,9.52,0,0,0,2.7,13.2,9.37,9.37,0,0,0,11.7-.9Z" transform="translate(106.65)"/><polygon class="cls-10" points="865.85 665.3 876.85 658.2 854.65 612.4 838.45 622.9 865.85 665.3"/><path class="cls-11" d="M798.1,654.7,763.5,677h0l-8.6-13.4h0l21.7-14a15.33,15.33,0,0,1,21.2,4.5h0l.3.6Z" transform="translate(106.65)"/><polygon class="cls-10" points="768.55 669.9 781.55 669.9 787.85 619.4 768.55 619.4 768.55 669.9"/><path class="cls-11" d="M700.2,682.1H659V666.2h25.9a15.3,15.3,0,0,1,15.3,15.3h0v.6Z" transform="translate(106.65)"/><path class="cls-11" d="M714.4,343.7c-1.7,5.7,4.4,11.8,6.4,17.4s4.7,10.9,5.8,16.8c.7,4,17.4,92.6,16.6,98a21.38,21.38,0,0,0-15.5,1.4,47.83,47.83,0,0,1-5.9-19.1,96.1,96.1,0,0,1,.1-12c.5-11.3-4.4-22.6-4.5-33.8a65.9,65.9,0,0,0-.9-11.7c-.5-2.6-.5-7.6-1.1-10.2-.9-4.2,3-6.1,2.8-10.4L717,356.6C716.9,352.4,712.7,347.4,714.4,343.7Z" transform="translate(106.65)"/><path class="cls-12" d="M655.2,442.3c-4.2,6.6-13.1,8-19.3,12.7-9.5,7.2,14.7,169.7,22.7,198.6,21.1-3.2,21.8-3.1,24.2-4.2s4.6-83.6,9.7-100.6c9.6,9,39.7,86.6,46.1,103.8,25.3-6.3,0,0,32.6-8.4-.3-6-48.2-200.1-50-215.4C699.3,433.1,677.1,437.9,655.2,442.3Z" transform="translate(106.65)"/><path class="cls-13" d="M652.3,320.3c-2.6,7.7.9,37.7,1.2,44.4a141.22,141.22,0,0,1,0,18.4c-.9,10.6-4.1,21.3-1.9,31.7,1.4,6.9,3.8,13.3,4.4,20.3.4,4.9.3,9.8,1.8,14.4,5.7-2.4,56-10.8,59.6-15.6-2.5-12.2-.1-24.8-1.8-37.2-1-7.1-3.4-14-4.5-21.1-1.4-8.8-.8-17.8-3.4-26.3a72.58,72.58,0,0,0-5.4-12.5c-2.2-4.5-5-8.2-5.9-8.2C694.2,328.7,652.5,319.6,652.3,320.3Z" transform="translate(106.65)"/><path class="cls-14" d="M642.7,503.7s8.7-17.4,9.2-27.3c.2-3.6,9.9-17.8,14.3-21,10.5-7.7,18.2-59,14.6-71.4-6.1-21.5-16.4-41.6-26.8-61.4a4.54,4.54,0,0,0-1.5-1.9c-2.1-1.3-4.4,1.3-5.9,3.3-4.9,6.9-13,10.6-20.4,14.7s-15,9.5-17.3,17.7c-1.5,5.5-.3,11.3.8,16.8s5.1,10,8.2,14.6c3.5,5.2,12.6,28,12.5,30.8.2,16.8.3,33.6-1.7,50.3-1.1,9.4-2.1,28.4-2.1,28.4Z" transform="translate(106.65)"/><path class="cls-14" d="M721.9,485.7c-16.1-36.5-15.2-78.1-25.4-116.7-3-11.4-7.1-23-6.4-34.8.1-2.1.6-4.5,2.3-5.7s3.7-.8,5.4,0,3.2,2,4.9,2.9c2.7,1.4,5.8,1.8,8.4,3.3,3.8,2.3,5.8,6.7,7.5,10.8,3.7,8.8,7.3,17.8,7.6,27.4.6,18.5-7.6,36.3-3.3,54.3a105.88,105.88,0,0,0,3.3,10.5,313,313,0,0,1,10.5,37.9C737.3,477.8,722.6,487.3,721.9,485.7Z" transform="translate(106.65)"/><path class="cls-10" d="M670.9,477.1a9.57,9.57,0,0,0-7.9-10.9,9.7,9.7,0,0,0-1.7-.1l-22.6-22.6-12.2,16.7,25.4,16.3a9.59,9.59,0,0,0,10.3,8.7,9.48,9.48,0,0,0,8.7-8.1Z" transform="translate(106.65)"/><path class="cls-14" d="M598.8,425.8c.4,3.4,28.9,39.2,44.4,50.9-.9-4.6,11.2-19.6,15.2-22-9.8-9.3-30.3-30.7-31-31.9-2.2-4.3,0-9.4,1.9-13.8,6.1-14.1,9-30.1,5.1-44.9-1.5-5.6-4.1-11.2-8.7-14.6-2-1.5-4.8-2.5-7.1-1.4a6.36,6.36,0,0,0-2.4,2.2C608.8,359,598.5,423.3,598.8,425.8Z" transform="translate(106.65)"/><path class="cls-11" d="M665.3,314.6c1.5-6.5-6.2-20.5-4.7-27,1-4.4,11.4-1.4,13.8-5.2s6.5-6.9,11-7c5.2-.1,10.3,3.8,15.2,2.1s6.6-8.5,4.4-13.3-6.9-7.8-11.6-10.2c-8-4.1-17.3-7-25.8-4.3-5.2,1.6-9.5,5.1-13.7,8.6-3.8,3.1-7.7,6.3-10.3,10.5-5.2,8.1-4.9,19.1-.4,27.7s12.6,14.9,21.5,18.5" transform="translate(106.65)"/><text class="cls-15" transform="translate(156.15 227.66)">F<tspan class="cls-16" x="10.77" y="0">L</tspan><tspan class="cls-17" x="20.88" y="0">U</tspan><tspan class="cls-18" x="33.88" y="0">T</tspan><tspan x="44.69" y="0">TER</tspan></text><text class="cls-15" transform="translate(311.84 210.23)">IONIC</text><text class="cls-19" transform="translate(319.96 343.7)">S<tspan class="cls-20" x="12.07" y="0">W</tspan><tspan x="33.87" y="0">I</tspan><tspan class="cls-21" x="40.19" y="0">F</tspan><tspan x="52.26" y="0">T</tspan></text><text class="cls-22" transform="translate(177.38 348.7)"><tspan class="cls-23">J</tspan><tspan class="cls-24" x="10.11" y="0">AV</tspan><tspan x="37.6" y="0">A</tspan></text><text class="cls-25" transform="translate(201.73 124.34)">RE<tspan class="cls-26" x="26.33" y="0">A</tspan><tspan class="cls-27" x="40.81" y="0">C</tspan><tspan x="54.46" y="0">T N</tspan><tspan class="cls-28" x="86.76" y="0">A</tspan><tspan x="100.77" y="0">T</tspan><tspan class="cls-29" x="112.61" y="0">I</tspan><tspan class="cls-23" x="118.9" y="0">V</tspan><tspan x="132.9" y="0">E</tspan></text><text x="106.65"/></svg>